<svg xmlns="http://www.w3.org/2000/svg" xmlns:xlink="http://www.w3.org/1999/xlink" width="37" height="40"><defs><path id="a" d="M0 .242h7.938v11.634H0z"/><path id="c" d="M.322.05h28.169V23.5H.322z"/></defs><g fill="none" fill-rule="evenodd"><g transform="translate(0 19)"><mask id="b" fill="#fff"><use xlink:href="#a"/></mask><path fill="#2B2B2B" d="M6.359 1.118c.54.099.956.412 1.009 1.072l.116 1.436c.057.713-.307 1.035-.825 1.217l-3.61 1.163 3.776.742c.542.11.942.4 1 1.111l.108 1.348c.052.648-.307 1.034-.828 1.177l-5.25 1.445c-.559.159-.995-.089-1.043-.686l-.045-.56c-.06-.749.167-.997.812-1.213l4.44-1.025-4.592-.87c-.54-.098-.942-.399-.998-1.098l-.049-.61c-.053-.648.293-1.046.81-1.227l4.327-1.45-4.492-.443C.409 2.58.103 2.335.042 1.573l-.04-.483C-.043.505.464.184.923.25l5.437.868z" mask="url(#b)"/></g><path fill="#2B2B2B" d="M9.522 17.049a.921.921 0 0 1-1.274.314l-3.533-2.195-.093.154c-.205.342-.607.516-.965.294l-.628-.39c-.293-.182-.37-.625-.159-.978l.926-1.546a.922.922 0 0 1 1.274-.314l4.487 2.79a.959.959 0 0 1 .309 1.296l-.344.575zm-6.97-4.332a.921.921 0 0 1-1.273.315l-.336-.209a.96.96 0 0 1-.309-1.298l.344-.574a.923.923 0 0 1 1.274-.315l.336.209a.96.96 0 0 1 .308 1.298l-.344.574zm10.914.148a.947.947 0 0 1-1.3-.326L8.135 5.787l-.156.094c-.344.21-.79.175-1.01-.196l-.389-.65c-.181-.303-.046-.737.31-.953l1.556-.946a.947.947 0 0 1 1.3.325l4.62 7.74a.967.967 0 0 1-.323 1.312l-.577.352zm5.541-1.867c-.498.037-.938-.364-.973-.889l-.528-7.883-.174.013c-.385.029-.751-.208-.78-.64l-.05-.759c-.025-.354.279-.679.677-.708l1.742-.13c.497-.037.937.365.972.889l.605 9.036c.035.523-.347.986-.844 1.023l-.647.048zm10.938 1.511a.968.968 0 0 1-1.282.386l-4.22-2.16c-.368-.188-.596-.662-.323-1.164.273-.503.604-.761 1.125-.937l3.627-1.27-2.173-1.111c-.448-.23-.564-.774-.26-1.147l.161-.188c.329-.417.925-.54 1.42-.287l3.99 2.042c.598.306.577.696.317 1.176-.14.257-.348.45-.693.573l-4.249 1.521 2.254 1.154c.46.235.64.798.397 1.245l-.09.167z"/><g transform="translate(8.5 16.5)"><mask id="d" fill="#fff"><use xlink:href="#c"/></mask><path fill="#00C2D6" d="M11.245 23.5A17.078 17.078 0 0 1 .767 19.951a1.135 1.135 0 0 1-.21-1.594 1.142 1.142 0 0 1 1.6-.21 14.772 14.772 0 0 0 9.328 3.077c8.246-.126 14.85-6.92 14.724-15.145a14.894 14.894 0 0 0-.775-4.53 1.14 1.14 0 0 1 2.16-.725c.567 1.678.867 3.434.895 5.22.146 9.479-7.466 17.308-16.969 17.454l-.275.002" mask="url(#d)"/></g></g></svg>